<svg xmlns="http://www.w3.org/2000/svg" width="1800" height="580" viewBox="0 0 1800 580">

<defs>
  <filter id="shadow" x="-20%" y="-20%" width="140%" height="140%">
    <feDropShadow dx="0" dy="8" stdDeviation="10" flood-color="#0B1220" flood-opacity="0.12"/>
  </filter>
  <marker id="arrow" viewBox="0 0 10 10" refX="9" refY="5" markerWidth="8" markerHeight="8" orient="auto-start-reverse">
    <path d="M 0 0 L 10 5 L 0 10 z" fill="#334155"/>
  </marker>
  <linearGradient id="gradBlue" x1="0" y1="0" x2="1" y2="1">
    <stop offset="0%" stop-color="#EAF3FF"/>
    <stop offset="100%" stop-color="#F7FBFF"/>
  </linearGradient>
  <linearGradient id="gradAmber" x1="0" y1="0" x2="1" y2="1">
    <stop offset="0%" stop-color="#FFF2E2"/>
    <stop offset="100%" stop-color="#FFFBF5"/>
  </linearGradient>
  <linearGradient id="gradGreen" x1="0" y1="0" x2="1" y2="1">
    <stop offset="0%" stop-color="#E9FFF4"/>
    <stop offset="100%" stop-color="#F6FFFB"/>
  </linearGradient>
  <linearGradient id="gradViolet" x1="0" y1="0" x2="1" y2="1">
    <stop offset="0%" stop-color="#EFEAFF"/>
    <stop offset="100%" stop-color="#FBFAFF"/>
  </linearGradient>
  <linearGradient id="gradPink" x1="0" y1="0" x2="1" y2="1">
    <stop offset="0%" stop-color="#FFEAF2"/>
    <stop offset="100%" stop-color="#FFFBFD"/>
  </linearGradient>
</defs>

<rect x="0" y="0" width="100%" height="100%" fill="#FFFFFF"/>
<rect x="40" y="60" width="300" height="460" rx="24" ry="24" fill="url(#gradBlue)" fill-opacity="1.0" stroke="#CBD5E1" stroke-width="1.6"/>
<text x="60" y="94" font-family="Pretendard, Noto Sans KR, Apple SD Gothic Neo, Malgun Gothic, Segoe UI, Arial, sans-serif" font-size="18" font-weight="800" fill="#0F172A" text-anchor="start">
<tspan x="60" dy="0">데이터 소스</tspan>
</text>
<line x1="58" y1="108" x2="322" y2="108" stroke="#CBD5E1" stroke-width="1"/>
<rect x="360" y="60" width="450" height="460" rx="24" ry="24" fill="url(#gradAmber)" fill-opacity="1.0" stroke="#CBD5E1" stroke-width="1.6"/>
<text x="380" y="94" font-family="Pretendard, Noto Sans KR, Apple SD Gothic Neo, Malgun Gothic, Segoe UI, Arial, sans-serif" font-size="18" font-weight="800" fill="#0F172A" text-anchor="start">
<tspan x="380" dy="0">크롤링 시스템</tspan>
</text>
<line x1="378" y1="108" x2="792" y2="108" stroke="#CBD5E1" stroke-width="1"/>
<rect x="830" y="140" width="260" height="260" rx="24" ry="24" fill="url(#gradGreen)" fill-opacity="1.0" stroke="#CBD5E1" stroke-width="1.6"/>
<text x="850" y="174" font-family="Pretendard, Noto Sans KR, Apple SD Gothic Neo, Malgun Gothic, Segoe UI, Arial, sans-serif" font-size="18" font-weight="800" fill="#0F172A" text-anchor="start">
<tspan x="850" dy="0">데이터 처리</tspan>
</text>
<line x1="848" y1="188" x2="1072" y2="188" stroke="#CBD5E1" stroke-width="1"/>
<rect x="1110" y="180" width="220" height="180" rx="24" ry="24" fill="url(#gradViolet)" fill-opacity="1.0" stroke="#CBD5E1" stroke-width="1.6"/>
<text x="1130" y="214" font-family="Pretendard, Noto Sans KR, Apple SD Gothic Neo, Malgun Gothic, Segoe UI, Arial, sans-serif" font-size="18" font-weight="800" fill="#0F172A" text-anchor="start">
<tspan x="1130" dy="0">데이터 저장소</tspan>
</text>
<line x1="1128" y1="228" x2="1312" y2="228" stroke="#CBD5E1" stroke-width="1"/>
<rect x="1350" y="60" width="410" height="460" rx="24" ry="24" fill="url(#gradPink)" fill-opacity="1.0" stroke="#CBD5E1" stroke-width="1.6"/>
<text x="1370" y="94" font-family="Pretendard, Noto Sans KR, Apple SD Gothic Neo, Malgun Gothic, Segoe UI, Arial, sans-serif" font-size="18" font-weight="800" fill="#0F172A" text-anchor="start">
<tspan x="1370" dy="0">웹 애플리케이션</tspan>
</text>
<line x1="1368" y1="108" x2="1742" y2="108" stroke="#CBD5E1" stroke-width="1"/>
<g opacity="1.0">
<path d="M 316 251.0 L 350.0 251.0 L 350.0 251.0 L 384 251.0" fill="none" stroke="#334155" stroke-width="2.2" stroke-linecap="round" stroke-linejoin="round" opacity="1.0" marker-end="url(#arrow)"/>
<path d="M 316 324.0 L 350.0 324.0 L 350.0 324.0 L 384 324.0" fill="none" stroke="#334155" stroke-width="2.2" stroke-linecap="round" stroke-linejoin="round" opacity="1.0" marker-end="url(#arrow)"/>
<path d="M 316 397.0 L 350.0 397.0 L 350.0 397.0 L 384 397.0" fill="none" stroke="#334155" stroke-width="2.2" stroke-linecap="round" stroke-linejoin="round" opacity="1.0" marker-end="url(#arrow)"/>
<path d="M 316 470.0 L 350.0 470.0 L 350.0 470.0 L 384 470.0" fill="none" stroke="#334155" stroke-width="2.2" stroke-linecap="round" stroke-linejoin="round" opacity="1.0" marker-end="url(#arrow)"/>
<path d="M 480.0 174 L 480.0 192 L 585 192 L 585 208 L 585.0 208 L 585.0 220" fill="none" stroke="#334155" stroke-width="1.8" stroke-linecap="round" stroke-linejoin="round" opacity="0.65" stroke-dasharray="5 5" marker-end="url(#arrow)"/>
<path d="M 690.0 174 L 690.0 192 L 585 192 L 585 198 L 585.0 198 L 585.0 220" fill="none" stroke="#334155" stroke-width="1.8" stroke-linecap="round" stroke-linejoin="round" opacity="0.55" stroke-dasharray="5 5" marker-end="url(#arrow)"/>
<path d="M 480.0 174 L 480.0 192 L 585 192 L 585 281 L 585.0 281 L 585.0 293" fill="none" stroke="#334155" stroke-width="1.8" stroke-linecap="round" stroke-linejoin="round" opacity="0.65" stroke-dasharray="5 5" marker-end="url(#arrow)"/>
<path d="M 690.0 174 L 690.0 192 L 585 192 L 585 271 L 585.0 271 L 585.0 293" fill="none" stroke="#334155" stroke-width="1.8" stroke-linecap="round" stroke-linejoin="round" opacity="0.55" stroke-dasharray="5 5" marker-end="url(#arrow)"/>
<path d="M 480.0 174 L 480.0 192 L 585 192 L 585 354 L 585.0 354 L 585.0 366" fill="none" stroke="#334155" stroke-width="1.8" stroke-linecap="round" stroke-linejoin="round" opacity="0.65" stroke-dasharray="5 5" marker-end="url(#arrow)"/>
<path d="M 690.0 174 L 690.0 192 L 585 192 L 585 344 L 585.0 344 L 585.0 366" fill="none" stroke="#334155" stroke-width="1.8" stroke-linecap="round" stroke-linejoin="round" opacity="0.55" stroke-dasharray="5 5" marker-end="url(#arrow)"/>
<path d="M 480.0 174 L 480.0 192 L 585 192 L 585 427 L 585.0 427 L 585.0 439" fill="none" stroke="#334155" stroke-width="1.8" stroke-linecap="round" stroke-linejoin="round" opacity="0.65" stroke-dasharray="5 5" marker-end="url(#arrow)"/>
<path d="M 690.0 174 L 690.0 192 L 585 192 L 585 417 L 585.0 417 L 585.0 439" fill="none" stroke="#334155" stroke-width="1.8" stroke-linecap="round" stroke-linejoin="round" opacity="0.55" stroke-dasharray="5 5" marker-end="url(#arrow)"/>
<path d="M 786 251.0 L 810 251.0 L 810 229.0 L 854 229.0" fill="none" stroke="#334155" stroke-width="2.1" stroke-linecap="round" stroke-linejoin="round" opacity="1.0" marker-end="url(#arrow)"/>
<path d="M 786 324.0 L 820 324.0 L 820 229.0 L 854 229.0" fill="none" stroke="#334155" stroke-width="2.1" stroke-linecap="round" stroke-linejoin="round" opacity="1.0" marker-end="url(#arrow)"/>
<path d="M 786 397.0 L 830 397.0 L 830 229.0 L 854 229.0" fill="none" stroke="#334155" stroke-width="2.1" stroke-linecap="round" stroke-linejoin="round" opacity="1.0" marker-end="url(#arrow)"/>
<path d="M 786 470.0 L 840 470.0 L 840 229.0 L 854 229.0" fill="none" stroke="#334155" stroke-width="2.1" stroke-linecap="round" stroke-linejoin="round" opacity="1.0" marker-end="url(#arrow)"/>
<path d="M 960.0 258 L 960.0 270" fill="none" stroke="#334155" stroke-width="2.2" stroke-linecap="round" stroke-linejoin="round" opacity="1.0" marker-end="url(#arrow)"/>
<path d="M 960.0 328 L 960.0 340" fill="none" stroke="#334155" stroke-width="2.2" stroke-linecap="round" stroke-linejoin="round" opacity="1.0" marker-end="url(#arrow)"/>
<path d="M 1066 369.0 L 1135.0 369.0 L 1135.0 270 L 1145.0 270" fill="none" stroke="#334155" stroke-width="2.3" stroke-linecap="round" stroke-linejoin="round" opacity="1.0" marker-end="url(#arrow)"/>
<path d="M 1295.0 250 L 1317.0 250 L 1317.0 145.0 L 1374 145.0" fill="none" stroke="#334155" stroke-width="2.3" stroke-linecap="round" stroke-linejoin="round" opacity="1.0" marker-end="url(#arrow)"/>
<path d="M 1295.0 290 L 1317.0 290 L 1317.0 145.0 L 1564 145.0" fill="none" stroke="#334155" stroke-width="2.3" stroke-linecap="round" stroke-linejoin="round" opacity="1.0" marker-end="url(#arrow)"/>
<path d="M 1460.0 180 L 1460.0 193 L 1555.0 193 L 1555.0 205" fill="none" stroke="#334155" stroke-width="2.2" stroke-linecap="round" stroke-linejoin="round" opacity="1.0" marker-end="url(#arrow)"/>
<path d="M 1650.0 180 L 1650.0 193 L 1555.0 193 L 1555.0 205" fill="none" stroke="#334155" stroke-width="2.2" stroke-linecap="round" stroke-linejoin="round" opacity="1.0" marker-end="url(#arrow)"/>
<path d="M 1435.0 279 L 1435.0 350 L 1414.0 350 L 1414.0 360" fill="none" stroke="#334155" stroke-width="2.1" stroke-linecap="round" stroke-linejoin="round" opacity="1.0" marker-end="url(#arrow)"/>
<path d="M 1515.0 279 L 1515.0 350 L 1508.0 350 L 1508.0 360" fill="none" stroke="#334155" stroke-width="2.1" stroke-linecap="round" stroke-linejoin="round" opacity="1.0" marker-end="url(#arrow)"/>
<path d="M 1595.0 279 L 1595.0 350 L 1602.0 350 L 1602.0 360" fill="none" stroke="#334155" stroke-width="2.1" stroke-linecap="round" stroke-linejoin="round" opacity="1.0" marker-end="url(#arrow)"/>
<path d="M 1675.0 279 L 1675.0 350 L 1696.0 350 L 1696.0 360" fill="none" stroke="#334155" stroke-width="2.1" stroke-linecap="round" stroke-linejoin="round" opacity="1.0" marker-end="url(#arrow)"/>
</g>
<rect x="64" y="220" width="252" height="62" rx="16" ry="16" fill="#FFFFFF" fill-opacity="1.0" stroke="#C7D2E1" stroke-width="1.4" filter="url(#shadow)"/>
<text x="190.0" y="247.8" font-family="Pretendard, Noto Sans KR, Apple SD Gothic Neo, Malgun Gothic, Segoe UI, Arial, sans-serif" font-size="16" font-weight="680" fill="#0F172A" text-anchor="middle">
<tspan x="190.0" dy="0">네이버 스포츠 뉴스</tspan>
</text>
<rect x="64" y="293" width="252" height="62" rx="16" ry="16" fill="#FFFFFF" fill-opacity="1.0" stroke="#C7D2E1" stroke-width="1.4" filter="url(#shadow)"/>
<text x="190.0" y="320.8" font-family="Pretendard, Noto Sans KR, Apple SD Gothic Neo, Malgun Gothic, Segoe UI, Arial, sans-serif" font-size="16" font-weight="680" fill="#0F172A" text-anchor="middle">
<tspan x="190.0" dy="0">KBO 공식 사이트</tspan>
</text>
<rect x="64" y="366" width="252" height="62" rx="16" ry="16" fill="#FFFFFF" fill-opacity="1.0" stroke="#C7D2E1" stroke-width="1.4" filter="url(#shadow)"/>
<text x="190.0" y="393.8" font-family="Pretendard, Noto Sans KR, Apple SD Gothic Neo, Malgun Gothic, Segoe UI, Arial, sans-serif" font-size="16" font-weight="680" fill="#0F172A" text-anchor="middle">
<tspan x="190.0" dy="0">네이버 증권</tspan>
</text>
<rect x="64" y="439" width="252" height="62" rx="16" ry="16" fill="#FFFFFF" fill-opacity="1.0" stroke="#C7D2E1" stroke-width="1.4" filter="url(#shadow)"/>
<text x="190.0" y="466.8" font-family="Pretendard, Noto Sans KR, Apple SD Gothic Neo, Malgun Gothic, Segoe UI, Arial, sans-serif" font-size="16" font-weight="680" fill="#0F172A" text-anchor="middle">
<tspan x="190.0" dy="0">네이버 날씨 API</tspan>
</text>
<rect x="384" y="110" width="192" height="64" rx="16" ry="16" fill="#FFFFFF" fill-opacity="1.0" stroke="#C7D2E1" stroke-width="1.4" filter="url(#shadow)"/>
<text x="480.0" y="129.6" font-family="Pretendard, Noto Sans KR, Apple SD Gothic Neo, Malgun Gothic, Segoe UI, Arial, sans-serif" font-size="16" font-weight="680" fill="#0F172A" text-anchor="middle">
<tspan x="480.0" dy="0">스케줄러</tspan>
<tspan x="480.0" dy="18.4">(수집 주기/트리거)</tspan>
</text>
<rect x="594" y="110" width="192" height="64" rx="16" ry="16" fill="#FFFFFF" fill-opacity="1.0" stroke="#C7D2E1" stroke-width="1.4" filter="url(#shadow)"/>
<text x="690.0" y="129.6" font-family="Pretendard, Noto Sans KR, Apple SD Gothic Neo, Malgun Gothic, Segoe UI, Arial, sans-serif" font-size="16" font-weight="680" fill="#0F172A" text-anchor="middle">
<tspan x="690.0" dy="0">오류 감지</tspan>
<tspan x="690.0" dy="18.4">(Failover/Alert)</tspan>
</text>
<rect x="384" y="220" width="402" height="62" rx="16" ry="16" fill="#FFFFFF" fill-opacity="1.0" stroke="#C7D2E1" stroke-width="1.4" filter="url(#shadow)"/>
<text x="585.0" y="247.8" font-family="Pretendard, Noto Sans KR, Apple SD Gothic Neo, Malgun Gothic, Segoe UI, Arial, sans-serif" font-size="16" font-weight="680" fill="#0F172A" text-anchor="middle">
<tspan x="585.0" dy="0">뉴스 크롤러</tspan>
</text>
<rect x="384" y="293" width="402" height="62" rx="16" ry="16" fill="#FFFFFF" fill-opacity="1.0" stroke="#C7D2E1" stroke-width="1.4" filter="url(#shadow)"/>
<text x="585.0" y="320.8" font-family="Pretendard, Noto Sans KR, Apple SD Gothic Neo, Malgun Gothic, Segoe UI, Arial, sans-serif" font-size="16" font-weight="680" fill="#0F172A" text-anchor="middle">
<tspan x="585.0" dy="0">경기/선수 크롤러</tspan>
</text>
<rect x="384" y="366" width="402" height="62" rx="16" ry="16" fill="#FFFFFF" fill-opacity="1.0" stroke="#C7D2E1" stroke-width="1.4" filter="url(#shadow)"/>
<text x="585.0" y="393.8" font-family="Pretendard, Noto Sans KR, Apple SD Gothic Neo, Malgun Gothic, Segoe UI, Arial, sans-serif" font-size="16" font-weight="680" fill="#0F172A" text-anchor="middle">
<tspan x="585.0" dy="0">증권 크롤러</tspan>
</text>
<rect x="384" y="439" width="402" height="62" rx="16" ry="16" fill="#FFFFFF" fill-opacity="1.0" stroke="#C7D2E1" stroke-width="1.4" filter="url(#shadow)"/>
<text x="585.0" y="466.8" font-family="Pretendard, Noto Sans KR, Apple SD Gothic Neo, Malgun Gothic, Segoe UI, Arial, sans-serif" font-size="16" font-weight="680" fill="#0F172A" text-anchor="middle">
<tspan x="585.0" dy="0">날씨 크롤러</tspan>
</text>
<rect x="854" y="200" width="212" height="58" rx="16" ry="16" fill="#FFFFFF" fill-opacity="1.0" stroke="#C7D2E1" stroke-width="1.4" filter="url(#shadow)"/>
<text x="960.0" y="225.8" font-family="Pretendard, Noto Sans KR, Apple SD Gothic Neo, Malgun Gothic, Segoe UI, Arial, sans-serif" font-size="16" font-weight="680" fill="#0F172A" text-anchor="middle">
<tspan x="960.0" dy="0">데이터 정제</tspan>
</text>
<rect x="854" y="270" width="212" height="58" rx="16" ry="16" fill="#FFFFFF" fill-opacity="1.0" stroke="#C7D2E1" stroke-width="1.4" filter="url(#shadow)"/>
<text x="960.0" y="295.8" font-family="Pretendard, Noto Sans KR, Apple SD Gothic Neo, Malgun Gothic, Segoe UI, Arial, sans-serif" font-size="16" font-weight="680" fill="#0F172A" text-anchor="middle">
<tspan x="960.0" dy="0">데이터 검증</tspan>
</text>
<rect x="854" y="340" width="212" height="58" rx="16" ry="16" fill="#FFFFFF" fill-opacity="1.0" stroke="#C7D2E1" stroke-width="1.4" filter="url(#shadow)"/>
<text x="960.0" y="365.8" font-family="Pretendard, Noto Sans KR, Apple SD Gothic Neo, Malgun Gothic, Segoe UI, Arial, sans-serif" font-size="16" font-weight="680" fill="#0F172A" text-anchor="middle">
<tspan x="960.0" dy="0">ETL 프로세스</tspan>
</text>
<rect x="1374" y="110" width="172" height="70" rx="16" ry="16" fill="#FFFFFF" fill-opacity="1.0" stroke="#C7D2E1" stroke-width="1.4" filter="url(#shadow)"/>
<text x="1460.0" y="141.8" font-family="Pretendard, Noto Sans KR, Apple SD Gothic Neo, Malgun Gothic, Segoe UI, Arial, sans-serif" font-size="16" font-weight="750" fill="#0F172A" text-anchor="middle">
<tspan x="1460.0" dy="0">Spring MVC 백엔드</tspan>
</text>
<rect x="1564" y="110" width="172" height="70" rx="16" ry="16" fill="#FFFFFF" fill-opacity="1.0" stroke="#C7D2E1" stroke-width="1.4" filter="url(#shadow)"/>
<text x="1650.0" y="141.8" font-family="Pretendard, Noto Sans KR, Apple SD Gothic Neo, Malgun Gothic, Segoe UI, Arial, sans-serif" font-size="16" font-weight="750" fill="#0F172A" text-anchor="middle">
<tspan x="1650.0" dy="0">Django 백엔드</tspan>
</text>
<rect x="1374" y="205" width="362" height="74" rx="16" ry="16" fill="#FFFFFF" fill-opacity="1.0" stroke="#C7D2E1" stroke-width="1.4" filter="url(#shadow)"/>
<text x="1555.0" y="229.6" font-family="Pretendard, Noto Sans KR, Apple SD Gothic Neo, Malgun Gothic, Segoe UI, Arial, sans-serif" font-size="16" font-weight="750" fill="#0F172A" text-anchor="middle">
<tspan x="1555.0" dy="0">프론트엔드</tspan>
<tspan x="1555.0" dy="18.4">(UI/SPA/SSR)</tspan>
</text>
<rect x="1374" y="360" width="80" height="66" rx="16" ry="16" fill="#FFFFFF" fill-opacity="1.0" stroke="#C7D2E1" stroke-width="1.4" filter="url(#shadow)"/>
<text x="1414.0" y="389.8" font-family="Pretendard, Noto Sans KR, Apple SD Gothic Neo, Malgun Gothic, Segoe UI, Arial, sans-serif" font-size="16" font-weight="680" fill="#0F172A" text-anchor="middle">
<tspan x="1414.0" dy="0">경기 정보</tspan>
</text>
<rect x="1468" y="360" width="80" height="66" rx="16" ry="16" fill="#FFFFFF" fill-opacity="1.0" stroke="#C7D2E1" stroke-width="1.4" filter="url(#shadow)"/>
<text x="1508.0" y="389.8" font-family="Pretendard, Noto Sans KR, Apple SD Gothic Neo, Malgun Gothic, Segoe UI, Arial, sans-serif" font-size="16" font-weight="680" fill="#0F172A" text-anchor="middle">
<tspan x="1508.0" dy="0">응원게시판</tspan>
</text>
<rect x="1562" y="360" width="80" height="66" rx="16" ry="16" fill="#FFFFFF" fill-opacity="1.0" stroke="#C7D2E1" stroke-width="1.4" filter="url(#shadow)"/>
<text x="1602.0" y="389.8" font-family="Pretendard, Noto Sans KR, Apple SD Gothic Neo, Malgun Gothic, Segoe UI, Arial, sans-serif" font-size="16" font-weight="680" fill="#0F172A" text-anchor="middle">
<tspan x="1602.0" dy="0">구단 정보</tspan>
</text>
<rect x="1656" y="360" width="80" height="66" rx="16" ry="16" fill="#FFFFFF" fill-opacity="1.0" stroke="#C7D2E1" stroke-width="1.4" filter="url(#shadow)"/>
<text x="1696.0" y="389.8" font-family="Pretendard, Noto Sans KR, Apple SD Gothic Neo, Malgun Gothic, Segoe UI, Arial, sans-serif" font-size="16" font-weight="680" fill="#0F172A" text-anchor="middle">
<tspan x="1696.0" dy="0">뉴스 피드</tspan>
</text>
<g filter="url(#shadow)">
<ellipse cx="1220" cy="243.0" rx="75.0" ry="18" fill="#FFFFFF" stroke="#C7D2E1" stroke-width="1.4"/>
<rect x="1145.0" y="243.0" width="150" height="54" fill="#FFFFFF" stroke="#C7D2E1" stroke-width="1.4"/>
<ellipse cx="1220" cy="297.0" rx="75.0" ry="18" fill="#FFFFFF" stroke="#C7D2E1" stroke-width="1.4"/>
</g>
<text x="1220" y="276" font-family="Pretendard, Noto Sans KR, Apple SD Gothic Neo, Malgun Gothic, Segoe UI, Arial, sans-serif" font-size="18" font-weight="850" fill="#0F172A" text-anchor="middle">
<tspan x="1220" dy="0">Oracle DB</tspan>
</text>
</svg>